<svg width="31" height="35" viewBox="0 0 31 35" fill="none" xmlns="http://www.w3.org/2000/svg">
<path fill-rule="evenodd" clip-rule="evenodd" d="M5.38546 0.0787075C5.89589 0.207714 7.13842 0.896341 7.28236 1.13004C7.33172 1.21011 8.01668 1.73518 8.80464 2.29688C11.6354 4.31442 12.4446 5.50587 13.3314 8.96102C14.0233 11.6568 14.1484 11.8055 15.7228 11.8055C16.7048 11.8055 16.8174 11.7734 17.1016 11.4108C17.2718 11.1936 17.4372 10.8767 17.4691 10.7065C17.8946 8.43758 18.1965 7.73368 19.9351 4.95559C21.509 2.44101 22.1911 1.70078 23.5176 1.06924C26.0192 -0.12192 26.9479 -0.12192 28.042 1.06924C29.314 2.45376 30.9994 7.38847 31 9.72957C31.0003 11.1636 30.4908 12.2962 29.2362 13.6491C28.559 14.3797 28.3404 14.7226 28.3404 15.0544C28.3404 16.0943 27.8047 16.8091 26.5452 17.4496C24.9932 18.2389 24.8153 18.8307 25.4591 21.0602C26.0016 22.9391 26.7596 23.9857 27.934 24.4778C28.2387 24.6056 28.4882 24.7409 28.4882 24.7785C28.4882 24.816 28.2887 24.9504 28.0448 25.0769C27.4967 25.3613 27.487 25.4983 28.0023 25.6801L28.4031 25.8216L27.4435 26.5085C26.3952 27.2593 25.7127 28.1447 24.5572 30.254C23.7079 31.8042 22.7045 32.9044 21.7558 33.3256C21.3826 33.4912 20.201 33.9341 19.1302 34.3099C17.3286 34.9419 17.0725 34.9933 15.7052 34.9997C14.4837 35.0053 14.0223 34.9376 13.0452 34.6094C12.395 34.3911 11.5637 34.1358 11.1979 34.0422C10.8322 33.9487 10.2272 33.7409 9.85344 33.5808C9.10523 33.26 8.4646 32.4897 6.7276 29.8219C5.51802 27.9642 4.70552 27.0357 3.84929 26.5321C3.23452 26.1706 3.20172 26.1227 3.44673 25.9428C3.73269 25.733 3.72766 25.7152 3.32009 25.4958C3.09044 25.3723 3.18088 25.2728 3.96529 24.787C5.08029 24.0964 5.40201 23.4747 5.88835 21.0701C6.33036 18.8852 6.25559 18.5099 5.2266 17.7471C4.21223 16.9951 3.45738 16.1037 3.24147 15.4026C3.14704 15.0961 2.71611 14.3686 2.28371 13.786C0.621479 11.5462 -0.156878 9.37132 0.0262212 7.47878C0.111195 6.60035 1.58899 2.64742 2.27647 1.45952C2.91798 0.350807 4.20307 -0.219935 5.38546 0.0787075ZM3.32999 1.38226C2.95936 1.71679 2.00677 3.75643 1.40515 5.5035C0.527046 8.05397 0.909944 10.4523 2.56508 12.7669C3.01995 13.4028 3.52979 14.1975 3.69811 14.5326C4.32514 15.7813 5.14975 16.4023 6.18066 16.4023C7.11759 16.4023 7.68506 16.0433 8.93927 14.657C9.57192 13.9577 10.4335 13.1648 10.8538 12.8951C11.4957 12.483 11.6667 12.2737 11.9231 11.5859C12.7184 9.45287 12.539 7.97523 11.2297 5.87421C10.6454 4.93646 10.3353 4.64657 8.90735 3.7026C8.3384 3.32655 7.47388 2.70332 6.98621 2.31778C5.62959 1.24525 4.96237 0.950909 4.12312 1.05471C3.84884 1.08866 3.49196 1.23606 3.32999 1.38226ZM24.2151 1.64176C23.4496 2.031 22.0156 3.68911 20.5545 5.87421C19.2341 7.84904 18.9663 8.48429 18.9611 9.65543C18.9548 11.0591 19.5029 12.0678 20.7337 12.9177C21.6411 13.5442 22.7304 14.5642 23.6447 15.6434L24.1952 16.2932L24.9747 16.1943C25.4034 16.1397 26.1193 15.914 26.5653 15.6926C27.2924 15.3319 27.398 15.2184 27.5851 14.5977C27.712 14.1764 28.1604 13.4528 28.73 12.7504C29.9873 11.1992 30.1745 10.7751 30.1625 9.50714C30.1464 7.8228 28.7811 3.65441 27.8458 2.43448C26.9298 1.23962 25.5839 0.945719 24.2151 1.64176ZM26.1237 2.12709C26.6899 2.22955 27.3843 2.82921 27.7989 3.57374C28.7917 5.35611 29.3749 7.47804 29.3749 9.30859C29.3749 10.7447 29.273 10.9821 27.8589 12.8435C26.6275 14.4645 25.859 14.9881 24.89 14.8667C23.6172 14.7073 23.1873 13.4868 24.0548 12.4955C24.589 11.8849 24.6001 11.8055 24.1507 11.8055C23.7362 11.8055 22.8724 11.5201 22.8728 11.3832C22.8731 11.33 23.2311 11.099 23.6685 10.8696C24.1059 10.6403 24.6048 10.3019 24.7774 10.1176L25.091 9.78265L23.834 9.84879C22.5131 9.91833 22.291 9.80341 22.9321 9.38184C23.1275 9.25343 23.4335 8.94233 23.6122 8.6904L23.9373 8.2325L23.1842 8.33274C22.2247 8.46041 21.9859 8.27862 21.9859 7.42036C21.9859 5.98927 22.6785 3.95142 23.4347 3.15766C24.2168 2.33676 25.2001 1.95983 26.1237 2.12709ZM5.75284 3.40292C6.63878 3.93822 8.35717 5.27915 9.03193 5.96199C9.66058 6.59798 9.91166 7.17687 9.8159 7.76912C9.70285 8.46827 9.36635 8.79805 8.63558 8.92573L8.02067 9.03323L8.5348 9.24735C9.02661 9.45228 9.03636 9.47067 8.76031 9.67322C8.60159 9.78962 8.21914 9.92545 7.91043 9.97498C7.21305 10.0869 7.08404 10.2601 7.61664 10.3696C7.8389 10.4152 8.15116 10.5496 8.31062 10.6682C8.55194 10.8475 8.56879 10.9222 8.41125 11.1128C8.30707 11.2386 8.02791 11.3844 7.79087 11.4366C7.36837 11.5297 7.36409 11.5401 7.5794 11.9578C7.84319 12.4695 7.86388 13.5557 7.62521 14.355C7.4393 14.9775 6.76247 15.6609 6.33169 15.6609C5.74279 15.6609 5.07024 14.9825 4.40391 13.7162C4.03593 13.0172 3.54811 12.2003 3.3195 11.9009C3.09088 11.6013 2.72823 10.9737 2.5135 10.5058C1.99332 9.37295 1.97352 7.56715 2.46134 5.73645C3.22211 2.88081 3.98894 2.33706 5.75284 3.40292ZM16.4874 13.141C15.8721 13.3228 15.6998 13.3174 14.9966 13.095C13.234 12.5375 11.7716 12.8724 10.2012 14.1933C9.06488 15.1492 8.36382 16.1796 7.57674 18.0505C6.98798 19.4498 6.86429 19.9114 6.79986 20.9469C6.73218 22.0369 6.7539 22.1905 6.98858 22.281C7.35537 22.4222 7.7059 21.9484 8.0885 20.795C8.49253 19.5766 9.14542 18.554 9.70433 18.264C9.94876 18.1372 10.5116 18.0334 10.9551 18.0334C11.6788 18.0334 11.8739 18.1096 12.8611 18.7788C14.0374 19.5762 14.3641 19.6115 14.6083 18.9675C14.8534 18.3201 14.7667 16.4579 14.4491 15.5512C14.0202 14.3268 14.0538 14.0565 14.666 13.7998C15.2499 13.555 16.4679 13.5167 17.0166 13.7261C17.6859 13.9814 17.771 14.396 17.3163 15.1858C16.9766 15.7761 16.9046 16.1013 16.8482 17.3021C16.7851 18.6411 16.8016 18.7443 17.1422 19.1417C17.4917 19.5495 17.5167 19.5554 17.9342 19.3299C19.8615 18.2891 20.1326 18.1817 20.8319 18.1817C22.0952 18.1817 22.7528 18.721 23.7914 20.6093C24.1446 21.2512 24.498 21.7654 24.5766 21.7521C25.0808 21.6668 24.152 18.202 23.2064 16.6399C22.4356 15.3667 20.7367 13.6792 19.7581 13.2148C18.8588 12.7881 17.7656 12.7633 16.4874 13.141ZM20.3603 19.7387C20.3603 19.7795 20.4933 19.9463 20.6559 20.1094C21.3031 20.7589 20.8057 21.7998 19.8481 21.7998C19.4482 21.7998 19.2284 21.7074 19.0439 21.462C18.8161 21.1591 18.77 21.1484 18.5965 21.3582C18.1392 21.9112 19.4056 22.2811 20.4244 21.8925C21.2569 21.5749 21.716 20.0811 21.0622 19.8174C20.6848 19.6653 20.3603 19.6288 20.3603 19.7387ZM10.1896 20.0757C10.1635 20.2611 10.3089 20.7123 10.5128 21.0784C10.8678 21.7156 10.8699 21.7346 10.5646 21.5199C10.107 21.1984 9.4268 21.2418 9.02764 21.618C8.83967 21.7954 8.68568 22.0123 8.68553 22.0999C8.68538 22.3938 7.41433 23.8859 6.80311 24.3098C6.47061 24.5404 5.81934 24.8837 5.35575 25.0727C4.62868 25.3693 4.55819 25.4308 4.84237 25.5214C5.13808 25.6156 5.14872 25.6497 4.94596 25.853C4.74336 26.0564 4.81163 26.141 5.61023 26.6761C6.60316 27.3415 7.4133 28.3026 8.43771 30.0306C9.5567 31.9182 9.86792 31.9735 9.86792 30.2849C9.86792 28.029 10.8944 26.3365 12.262 26.3376C12.55 26.3377 12.5234 26.3773 12.087 26.5971C11.7249 26.7793 11.4486 27.1002 11.156 27.6776C10.3504 29.2672 10.4749 31.1199 11.4446 31.9741C11.8986 32.3742 12.0429 32.4161 12.9395 32.4089C14.2864 32.3979 15.1623 32.0446 15.6279 31.3245L15.9941 30.7583L16.1121 31.2151C16.2557 31.7716 16.7744 32.0656 18.1052 32.345C19.3257 32.6012 19.8224 32.5019 20.4451 31.877C21.0572 31.263 21.3022 30.4011 21.2071 29.1986C21.1193 28.0881 20.7881 27.4754 19.91 26.798L19.2519 26.2906L19.7692 26.3898C20.8206 26.5914 21.5759 27.4832 21.836 28.8302C22.045 29.9116 22.2257 30.3409 22.4722 30.3409C22.7743 30.3409 23.349 29.6582 24.2824 28.1908C24.7494 27.4568 25.4018 26.6034 25.7322 26.2944C26.3007 25.7628 26.3155 25.728 26.0068 25.6469C25.5781 25.5345 25.5942 25.3863 26.0581 25.1741C26.5456 24.9514 26.423 24.7683 25.7095 24.6538C24.8243 24.5119 23.9082 23.8002 23.1646 22.6765C22.371 21.4774 22.1554 21.4088 20.9233 21.9637C20.1611 22.3069 19.9267 22.3467 19.1792 22.2596C18.401 22.169 18.2995 22.1895 18.1516 22.4669C18.0212 22.7115 18.0644 23.0054 18.361 23.8919C18.5665 24.5063 18.7347 25.0499 18.7347 25.1C18.7347 25.3475 18.0028 24.2151 17.4786 23.1566L16.8875 21.9629L16.007 21.9176C14.7275 21.8516 14.5273 21.9371 14.2487 22.6689C13.9599 23.4277 12.9997 25.0027 12.8259 25.0027C12.7585 25.0027 12.8947 24.5524 13.1288 24.0018C13.5932 22.9097 13.6629 22.4143 13.3777 22.2352C13.276 22.1713 12.79 22.1395 12.2974 22.1643C11.6855 22.1951 11.35 22.1469 11.2381 22.012C11.1047 21.8511 11.2157 21.8232 11.8381 21.8612C12.7152 21.9147 13.3337 21.607 13.0102 21.278C12.864 21.1291 12.7586 21.1567 12.4835 21.4162C11.8872 21.9782 11.0488 21.7823 10.7837 21.0191C10.6631 20.672 10.6896 20.4961 10.9197 20.1167L11.2053 19.6453L10.7213 19.692C10.3479 19.728 10.2264 19.8156 10.1896 20.0757ZM11.1616 20.443C11.0612 20.7168 11.1941 20.9991 11.4232 20.9991C11.7242 20.9991 11.838 20.7179 11.636 20.4736C11.4168 20.2087 11.2514 20.1981 11.1616 20.443ZM19.9666 20.6383C19.8502 20.9429 20.0839 21.1705 20.3461 21.0078C20.5694 20.8693 20.4665 20.406 20.2125 20.406C20.1261 20.406 20.0155 20.5105 19.9666 20.6383ZM10.6553 21.9143C10.8984 22.0961 11.4239 22.2696 11.9114 22.3287C12.7221 22.4272 12.7359 22.4364 12.3336 22.6045C11.615 22.905 11.2229 22.813 10.5641 22.1891C9.90206 21.562 9.95821 21.3928 10.6553 21.9143ZM21.1419 22.3311C20.6362 22.8151 20.4129 22.9268 19.9509 22.9268C19.6382 22.9268 19.2533 22.8268 19.0954 22.7045C18.8299 22.4988 18.8526 22.4887 19.3997 22.5687C19.8775 22.6384 20.1608 22.5669 20.8775 22.1951L21.7642 21.7353L21.1419 22.3311ZM18.6978 26.4271C19.7068 27.4223 19.086 28.9862 17.3308 29.8709C16.0368 30.523 13.9407 30.0159 13.1138 28.8505C12.7603 28.3525 12.5877 27.4512 12.7337 26.8671C12.9222 26.1132 13.3765 25.9847 15.9078 25.9684L18.2175 25.9534L18.6978 26.4271ZM15.8876 28.4479L16.0392 29.0805L16.0469 28.1167C16.0532 27.3251 16.0262 27.212 15.8954 27.4841C15.784 27.7157 15.7816 28.0056 15.8876 28.4479ZM17.3583 27.7334C16.7228 28.3244 16.6203 29.3247 17.1846 29.4269C17.4224 29.4699 17.4433 29.4432 17.2939 29.2877C17.0221 29.0046 17.0649 28.7853 17.4917 28.2764C17.9584 27.7199 18.5425 27.6561 18.6149 28.1538C18.6503 28.3972 18.6879 28.4273 18.7536 28.265C18.8031 28.1426 18.7881 27.8925 18.7201 27.7089C18.5506 27.2516 17.8631 27.2639 17.3583 27.7334ZM13.0904 27.75C12.9614 28.0341 12.9621 28.1668 13.0935 28.2986C13.2261 28.4316 13.2669 28.3959 13.2669 28.1463C13.2669 27.6911 13.8541 27.7132 14.2958 28.185C14.5678 28.4754 14.6201 28.657 14.5525 29.0749C14.4742 29.559 14.49 29.5879 14.754 29.4462C15.1972 29.2082 15.1199 28.5145 14.5815 27.8994C14.005 27.2405 13.3514 27.1751 13.0904 27.75ZM14.3925 32.7695L12.9318 33.268L14.023 33.5088C14.623 33.6413 15.324 33.7904 15.5805 33.8404C16.1555 33.9524 18.0227 33.6505 18.3811 33.3874C18.6178 33.2138 18.5855 33.1838 18.0616 33.0925C17.6479 33.0203 15.853 32.3565 15.853 32.2757C15.853 32.2731 15.1957 32.4952 14.3925 32.7695Z" fill="black"/>
</svg>
